<?xml version="1.0" standalone="no"?>
<!DOCTYPE svg PUBLIC "-//W3C//DTD SVG 20010904//EN"
 "http://www.w3.org/TR/2001/REC-SVG-20010904/DTD/svg10.dtd">
<svg version="1.0" xmlns="http://www.w3.org/2000/svg"
 width="512.000000pt" height="512.000000pt" viewBox="0 0 512.000000 512.000000"
 preserveAspectRatio="xMidYMid meet">
<metadata>
Created by potrace 1.14, written by Peter Selinger 2001-2017
</metadata>
<g transform="translate(0.000000,512.000000) scale(0.100000,-0.100000)"
fill="#000000" stroke="none">
<path d="M2255 4833 c-49 -1 -169 -7 -265 -13 -918 -55 -1581 -227 -1689 -437
-17 -34 -15 -307 4 -342 22 -44 98 -105 179 -145 690 -341 2707 -408 3812
-126 307 78 494 172 543 273 18 37 21 61 21 172 0 111 -3 135 -21 172 -135
279 -1318 483 -2584 446z"/>
<path d="M290 3785 c0 -99 6 -127 169 -786 326 -1316 581 -2343 591 -2380 25
-93 294 -213 621 -278 261 -51 507 -71 899 -71 402 0 659 21 930 76 232 48
480 143 564 217 l36 32 380 1554 c363 1483 380 1558 380 1648 l0 94 -57 -39
c-151 -102 -381 -186 -692 -252 -425 -90 -814 -129 -1381 -137 -631 -9 -1085
26 -1570 123 -306 61 -536 134 -737 234 l-133 67 0 -102z"/>
</g>
</svg>
